<svg width="30" height="30" viewBox="0 0 25 25" fill="none" xmlns="http://www.w3.org/2000/svg">
<path d="M7.98926 22.3164C7.43926 22.3164 6.96859 22.1207 6.57726 21.7294C6.18526 21.3374 5.98926 20.8664 5.98926 20.3164C5.98926 19.7664 6.18526 19.2954 6.57726 18.9034C6.96859 18.5121 7.43926 18.3164 7.98926 18.3164C8.53926 18.3164 9.00992 18.5121 9.40126 18.9034C9.79326 19.2954 9.98926 19.7664 9.98926 20.3164C9.98926 20.8664 9.79326 21.3374 9.40126 21.7294C9.00992 22.1207 8.53926 22.3164 7.98926 22.3164ZM17.9893 22.3164C17.4393 22.3164 16.9686 22.1207 16.5773 21.7294C16.1853 21.3374 15.9893 20.8664 15.9893 20.3164C15.9893 19.7664 16.1853 19.2954 16.5773 18.9034C16.9686 18.5121 17.4393 18.3164 17.9893 18.3164C18.5393 18.3164 19.0103 18.5121 19.4023 18.9034C19.7936 19.2954 19.9893 19.7664 19.9893 20.3164C19.9893 20.8664 19.7936 21.3374 19.4023 21.7294C19.0103 22.1207 18.5393 22.3164 17.9893 22.3164ZM7.13926 6.31641L9.53926 11.3164H16.5393L19.2893 6.31641H7.13926ZM7.98926 17.3164C7.23926 17.3164 6.67259 16.9871 6.28926 16.3284C5.90592 15.6704 5.88926 15.0164 6.23926 14.3664L7.58926 11.9164L3.98926 4.31641H2.96426C2.68092 4.31641 2.44759 4.22041 2.26426 4.02841C2.08092 3.83707 1.98926 3.59974 1.98926 3.31641C1.98926 3.03307 2.08526 2.79541 2.27726 2.60341C2.46859 2.41207 2.70592 2.31641 2.98926 2.31641H4.61426C4.79759 2.31641 4.97259 2.36641 5.13926 2.46641C5.30592 2.56641 5.43092 2.70807 5.51426 2.89141L6.18926 4.31641H20.9393C21.3893 4.31641 21.6976 4.48307 21.8643 4.81641C22.0309 5.14974 22.0226 5.49974 21.8393 5.86641L18.2893 12.2664C18.1059 12.5997 17.8643 12.8581 17.5643 13.0414C17.2643 13.2247 16.9226 13.3164 16.5393 13.3164H9.08926L7.98926 15.3164H19.0143C19.2976 15.3164 19.5309 15.4121 19.7143 15.6034C19.8976 15.7954 19.9893 16.0331 19.9893 16.3164C19.9893 16.5997 19.8933 16.8371 19.7013 17.0284C19.5099 17.2204 19.2726 17.3164 18.9893 17.3164H7.98926ZM9.53926 11.3164H16.5393H9.53926Z" fill="black"/>
</svg>
