<svg width="15" height="15" viewBox="0 0 15 15" fill="none" xmlns="http://www.w3.org/2000/svg">
<path d="M6.29472 0.53125C7.34135 0.531208 8.36717 0.823694 9.2564 1.3757C10.1456 1.92771 10.8629 2.71726 11.3272 3.65526C11.7915 4.59326 11.9845 5.64237 11.8842 6.68419C11.784 7.72601 11.3945 8.71908 10.7598 9.55132L14.3108 13.1038C14.4451 13.2385 14.523 13.4193 14.5288 13.6094C14.5346 13.7996 14.4679 13.9848 14.3421 14.1274C14.2163 14.2701 14.0409 14.3596 13.8515 14.3776C13.6622 14.3956 13.473 14.3409 13.3226 14.2246L13.2522 14.1624L9.6997 10.6114C8.99071 11.1521 8.16316 11.5161 7.28555 11.6734C6.40794 11.8306 5.50548 11.7767 4.65287 11.5159C3.80025 11.2552 3.02199 10.7951 2.38247 10.1739C1.74295 9.55262 1.26057 8.788 0.975235 7.9433C0.689902 7.09859 0.609822 6.19808 0.741623 5.31628C0.873423 4.43448 1.21331 3.59674 1.73317 2.87239C2.25303 2.14803 2.9379 1.55788 3.73113 1.15077C4.52435 0.743661 5.40312 0.531297 6.29472 0.53125ZM6.29472 2.02861C5.20263 2.02861 4.15527 2.46244 3.38305 3.23466C2.61082 4.00688 2.17699 5.05424 2.17699 6.14633C2.17699 7.23842 2.61082 8.28578 3.38305 9.058C4.15527 9.83023 5.20263 10.2641 6.29472 10.2641C7.38681 10.2641 8.43417 9.83023 9.20639 9.058C9.97861 8.28578 10.4124 7.23842 10.4124 6.14633C10.4124 5.05424 9.97861 4.00688 9.20639 3.23466C8.43417 2.46244 7.38681 2.02861 6.29472 2.02861Z" fill="#BBBBBB"/>
</svg>
